<?xml version="1.0" encoding="UTF-8"?>
<!-- (c) Carrd Inc. All rights reserved. All logos and trademarks are property of their respective owners. -->
<svg xmlns="http://www.w3.org/2000/svg" version="1.1" xmlns:xlink="http://www.w3.org/1999/xlink" viewBox="0 0 40 40" display="none" width="0" height="0">
	<symbol id="arrow-down-light" viewBox="0 0 40 40"><path d="M19.8,34.2c-0.3,0-0.3-0.1-0.4-0.1L6.6,21.4c-0.1-0.1-0.1-0.1-0.1-0.4c0-0.3,0.1-0.3,0.1-0.4l1.5-1.5 C8.2,19.1,8.2,19,8.5,19s0.3,0.1,0.4,0.1l9.2,9.2V5.9c0-0.1,0-0.2,0-0.2c0,0,0,0,0,0c0.1-0.1,0.2-0.1,0.4-0.1H21 c0.2,0,0.4,0.1,0.5,0.1c0,0,0,0.1,0,0.2v22.4l9.2-9.2c0.1-0.1,0.1-0.1,0.4-0.1c0.3,0,0.3,0.1,0.4,0.1l1.5,1.5 c0.1,0.1,0.1,0.1,0.1,0.4c0,0.3-0.1,0.3-0.1,0.4L20.2,34.1C20.1,34.1,20.1,34.2,19.8,34.2z"/></symbol>
	<symbol id="instagram" viewBox="0 0 40 40"><path d="M20,7c4.2,0,4.7,0,6.3,0.1c1.5,0.1,2.3,0.3,3,0.5C30,8,30.5,8.3,31.1,8.9c0.5,0.5,0.9,1.1,1.2,1.8c0.2,0.5,0.5,1.4,0.5,3 C33,15.3,33,15.8,33,20s0,4.7-0.1,6.3c-0.1,1.5-0.3,2.3-0.5,3c-0.3,0.7-0.6,1.2-1.2,1.8c-0.5,0.5-1.1,0.9-1.8,1.2 c-0.5,0.2-1.4,0.5-3,0.5C24.7,33,24.2,33,20,33s-4.7,0-6.3-0.1c-1.5-0.1-2.3-0.3-3-0.5C10,32,9.5,31.7,8.9,31.1 C8.4,30.6,8,30,7.7,29.3c-0.2-0.5-0.5-1.4-0.5-3C7,24.7,7,24.2,7,20s0-4.7,0.1-6.3c0.1-1.5,0.3-2.3,0.5-3C8,10,8.3,9.5,8.9,8.9 C9.4,8.4,10,8,10.7,7.7c0.5-0.2,1.4-0.5,3-0.5C15.3,7.1,15.8,7,20,7z M20,4.3c-4.3,0-4.8,0-6.5,0.1c-1.6,0-2.8,0.3-3.8,0.7 C8.7,5.5,7.8,6,6.9,6.9C6,7.8,5.5,8.7,5.1,9.7c-0.4,1-0.6,2.1-0.7,3.8c-0.1,1.7-0.1,2.2-0.1,6.5s0,4.8,0.1,6.5 c0,1.6,0.3,2.8,0.7,3.8c0.4,1,0.9,1.9,1.8,2.8c0.9,0.9,1.7,1.4,2.8,1.8c1,0.4,2.1,0.6,3.8,0.7c1.6,0.1,2.2,0.1,6.5,0.1 s4.8,0,6.5-0.1c1.6-0.1,2.9-0.3,3.8-0.7c1-0.4,1.9-0.9,2.8-1.8c0.9-0.9,1.4-1.7,1.8-2.8c0.4-1,0.6-2.1,0.7-3.8 c0.1-1.6,0.1-2.2,0.1-6.5s0-4.8-0.1-6.5c-0.1-1.6-0.3-2.9-0.7-3.8c-0.4-1-0.9-1.9-1.8-2.8c-0.9-0.9-1.7-1.4-2.8-1.8 c-1-0.4-2.1-0.6-3.8-0.7C24.8,4.3,24.3,4.3,20,4.3L20,4.3L20,4.3z"/><path d="M20,11.9c-4.5,0-8.1,3.7-8.1,8.1s3.7,8.1,8.1,8.1s8.1-3.7,8.1-8.1S24.5,11.9,20,11.9z M20,25.2c-2.9,0-5.2-2.3-5.2-5.2 s2.3-5.2,5.2-5.2s5.2,2.3,5.2,5.2S22.9,25.2,20,25.2z"/><path d="M30.6,11.6c0,1-0.8,1.9-1.9,1.9c-1,0-1.9-0.8-1.9-1.9s0.8-1.9,1.9-1.9C29.8,9.7,30.6,10.5,30.6,11.6z"/></symbol>
	<symbol id="x" viewBox="0 0 40 40"><path d="M36,36l-12.4-18.3,11.6-13.7h-4l-9.4,11-7.5-11H4.2l12,17.7-12.2,14.3h4l9.9-11.7,7.9,11.7h10.2,0ZM13,6.6l18.2,26.9h-4L9,6.6h4Z" /></symbol>
	<symbol id="snapchat" viewBox="0 0 40 40"><path d="M18.5,4.8c-2.3,0.3-4,1.2-5.4,2.6c-2,2.1-2.5,3.9-2.2,8.4c0.1,0.8,0.1,1.4,0,1.4c-0.1,0.1-1.1,0-1.7-0.2 c-0.6-0.2-0.7-0.2-1.2-0.1c-0.4,0.1-0.6,0.2-0.9,0.5c-0.3,0.3-0.4,0.4-0.4,0.7c0,0.8,0.6,1.3,2.3,1.9c1.7,0.6,1.9,1.1,1.2,2.4 c-0.5,1.1-1.1,1.8-1.9,2.7c-1.2,1.2-2.4,2-3.9,2.3c-0.8,0.2-1.1,0.5-1,0.9c0,0.2,0.1,0.4,0.2,0.5c0.4,0.5,1.7,1.1,3.3,1.4 C7.6,30.4,8,30.5,8,30.5c0,0.1,0.1,0.4,0.2,0.8c0.3,1.1,0.5,1.3,1.7,1.1c1.8-0.3,2.9-0.2,3.8,0.2c0.2,0.1,0.9,0.5,1.6,1 c2,1.4,2.8,1.7,4.6,1.7s2.5-0.3,4.6-1.7c0.6-0.4,1.3-0.9,1.6-1c0.7-0.3,1.7-0.4,2.8-0.3c1.9,0.2,2,0.2,2.2,0 c0.1-0.1,0.3-0.4,0.3-0.6c0.3-1.3,0.3-1.3,0.8-1.3c0.2,0,0.8-0.1,1.3-0.3c1.5-0.4,2.3-0.8,2.5-1.4c0.3-0.7,0-1-1.1-1.3 c-2.4-0.6-4.3-2.3-5.7-5c-0.7-1.3-0.4-1.8,1.2-2.4c1.7-0.6,2.3-1.1,2.3-1.9c0-0.7-0.9-1.3-1.7-1.3c-0.2,0-0.6,0.1-0.9,0.2 c-0.6,0.2-1.4,0.3-1.5,0.2c0,0,0-0.7,0-1.6c0.1-1.6,0.1-3.6-0.1-4.5c-0.4-2.3-2.4-4.7-4.8-5.7c-1.2-0.5-2.2-0.7-3.7-0.7 C19.4,4.8,18.7,4.8,18.5,4.8L18.5,4.8z"/></symbol>
	<symbol id="tiktok" viewBox="0 0 40 40"><path d="M36.1,11.7v5c-3.3,0-6.3-1-8.8-2.8v12.9c0,6.5-5.2,11.7-11.7,11.7c-2.4,0-4.6-0.7-6.5-2c0,0,0,0,0,0 c-3.1-2.1-5.2-5.7-5.2-9.7c0-6.5,5.2-11.7,11.7-11.7c0.5,0,1.1,0,1.6,0.1v1.4c0,0,0,0,0,0v5c-0.5-0.2-1.1-0.3-1.6-0.3 c-2.9,0-5.3,2.4-5.3,5.4c0,2.1,1.2,3.9,2.9,4.8c0.7,0.4,1.5,0.6,2.4,0.6c2.9,0,5.3-2.4,5.3-5.3V1.5h6.3v0.8c0,0.2,0.1,0.5,0.1,0.7 c0.4,2.5,1.9,4.7,4,6c0,0,0.1,0.1,0.1,0.1c0,0-0.1-0.1-0.1-0.1c1.4,0.9,3,1.3,4.7,1.3V11.7"/></symbol>
	<symbol id="whatsapp" viewBox="0 0 40 40"><path d="M24.9,21.9c0.2,0,0.9,0.3,2.1,1c1.2,0.6,1.9,1,1.9,1.1c0,0.1,0,0.2,0,0.3c0,0.5-0.1,1-0.4,1.6c-0.2,0.6-0.7,1-1.5,1.4 s-1.5,0.6-2.2,0.6c-0.8,0-2.2-0.4-4.1-1.3c-1.4-0.7-2.6-1.5-3.7-2.6c-1-1.1-2.1-2.4-3.2-4c-1-1.5-1.6-3-1.5-4.2v-0.2 c0-1.3,0.6-2.5,1.6-3.4c0.3-0.3,0.7-0.5,1.1-0.5c0.1,0,0.2,0,0.4,0c0.2,0,0.3,0,0.4,0c0.3,0,0.5,0,0.6,0.1c0.1,0.1,0.2,0.3,0.3,0.6 c0.1,0.3,0.4,0.9,0.7,1.9S18,16,18,16.1c0,0.3-0.2,0.7-0.7,1.2c-0.5,0.5-0.7,0.9-0.7,1c0,0.1,0,0.2,0.1,0.3c0.5,1.1,1.2,2,2.2,3 c0.8,0.8,1.9,1.5,3.3,2.2c0.2,0.1,0.3,0.2,0.5,0.2c0.2,0,0.6-0.4,1.2-1.1S24.7,21.9,24.9,21.9L24.9,21.9z M20.5,33.4 c1.8,0,3.6-0.4,5.3-1.1c1.7-0.7,3.1-1.7,4.4-2.9c1.2-1.2,2.2-2.7,2.9-4.4c0.7-1.7,1.1-3.4,1.1-5.3c0-1.8-0.4-3.6-1.1-5.3 c-0.7-1.7-1.7-3.1-2.9-4.4s-2.7-2.2-4.4-2.9s-3.4-1.1-5.3-1.1c-1.8,0-3.6,0.4-5.3,1.1s-3.1,1.7-4.4,2.9c-1.2,1.2-2.2,2.7-2.9,4.4 c-0.7,1.7-1.1,3.4-1.1,5.3c0,2.9,0.9,5.6,2.6,8l-1.7,5.1l5.3-1.7C15.3,32.6,17.8,33.4,20.5,33.4z M20.5,3.4c2.2,0,4.3,0.4,6.3,1.3 s3.8,2,5.2,3.5c1.5,1.5,2.6,3.2,3.5,5.2c0.9,2,1.3,4.1,1.3,6.3c0,2.2-0.4,4.3-1.3,6.3s-2,3.8-3.5,5.2c-1.5,1.5-3.2,2.6-5.2,3.5 s-4.1,1.3-6.3,1.3c-2.8,0-5.5-0.7-7.9-2L3.5,37l3-8.8c-1.6-2.6-2.3-5.4-2.3-8.4c0-2.2,0.4-4.3,1.3-6.3s2-3.8,3.5-5.2 s3.2-2.6,5.2-3.5S18.2,3.4,20.5,3.4z"/></symbol>
	<symbol id="location" viewBox="0 0 40 40"><path d="M20.6,37.7c-.4.4-.8.4-1.3,0-4.5-7.6-9.5-16.6-9.5-24.2S14.3,3,20,3s10.2,4.1,10.2,10.5-5.1,16.6-9.5,24.2ZM20,8c-3,0-5.5,2.5-5.5,5.5s2.5,5.5,5.5,5.5,5.5-2.5,5.5-5.5-2.5-5.5-5.5-5.5Z" /></symbol>
	<symbol id="youtube" viewBox="0 0 40 40"><path d="M24.3,27v4.2c0,0.9-0.3,1.3-0.8,1.3c-0.3,0-0.6-0.1-0.9-0.4v-6c0.3-0.3,0.6-0.4,0.9-0.4C24,25.6,24.3,26.1,24.3,27L24.3,27z M31.1,27v0.9h-1.8V27c0-0.9,0.3-1.4,0.9-1.4C30.8,25.6,31.1,26.1,31.1,27L31.1,27z M11.7,22.6h2.1v-1.9H7.6v1.9h2.1v11.4h2 L11.7,22.6L11.7,22.6z M17.5,34.1h1.8v-9.9h-1.8v7.6c-0.4,0.6-0.8,0.8-1.1,0.8c-0.2,0-0.4-0.1-0.4-0.4c0,0,0-0.3,0-0.7v-7.3h-1.8V32 c0,0.7,0.1,1.1,0.2,1.5c0.2,0.5,0.5,0.7,1.2,0.7c0.6,0,1.3-0.4,2-1.2L17.5,34.1L17.5,34.1z M26.1,31.1v-4c0-1-0.1-1.6-0.2-2 c-0.2-0.7-0.7-1.1-1.4-1.1c-0.7,0-1.3,0.4-1.9,1.1v-4.4h-1.8v13.3h1.8v-1c0.6,0.7,1.2,1.1,1.9,1.1c0.7,0,1.2-0.4,1.4-1.1 C26,32.7,26.1,32.1,26.1,31.1L26.1,31.1z M32.9,30.9v-0.3H31c0,0.7,0,1.1,0,1.2c-0.1,0.5-0.4,0.7-0.8,0.7c-0.6,0-0.9-0.5-0.9-1.4 v-1.7h3.6v-2.1c0-1.1-0.2-1.8-0.5-2.3c-0.5-0.7-1.2-1-2.1-1c-0.9,0-1.6,0.3-2.1,1c-0.4,0.5-0.6,1.3-0.6,2.3v3.5 c0,1.1,0.2,1.8,0.6,2.3c0.5,0.7,1.2,1,2.2,1c1,0,1.7-0.4,2.2-1.1c0.2-0.4,0.4-0.7,0.4-1.1C32.9,31.9,32.9,31.5,32.9,30.9L32.9,30.9z M20.7,12.5V8.3c0-0.9-0.3-1.4-0.9-1.4c-0.6,0-0.9,0.5-0.9,1.4v4.2c0,0.9,0.3,1.4,0.9,1.4C20.4,14,20.7,13.5,20.7,12.5z M35.1,27.6 c0,3.1-0.2,5.5-0.5,7c-0.2,0.8-0.6,1.5-1.2,2c-0.6,0.5-1.3,0.8-2,0.9c-2.5,0.3-6.2,0.4-11.1,0.4s-8.7-0.1-11.1-0.4 c-0.8-0.1-1.5-0.4-2.1-0.9c-0.6-0.5-1-1.2-1.2-2c-0.3-1.5-0.5-3.8-0.5-7c0-3.1,0.2-5.5,0.5-7c0.2-0.8,0.6-1.5,1.2-2 c0.6-0.5,1.3-0.9,2.1-0.9c2.5-0.3,6.2-0.4,11.1-0.4s8.7,0.1,11.1,0.4c0.8,0.1,1.5,0.4,2.1,0.9c0.6,0.5,1,1.2,1.2,2 C34.9,22.1,35.1,24.4,35.1,27.6z M15.1,2h2l-2.4,8v5.4h-2V10c-0.2-1-0.6-2.4-1.2-4.3c-0.5-1.4-0.9-2.6-1.3-3.8h2.1l1.4,5.3L15.1,2z M22.5,8.7v3.5c0,1.1-0.2,1.9-0.6,2.4c-0.5,0.7-1.2,1-2.1,1c-0.9,0-1.6-0.3-2.1-1c-0.4-0.5-0.6-1.3-0.6-2.4V8.7 c0-1.1,0.2-1.9,0.6-2.3c0.5-0.7,1.2-1,2.1-1c0.9,0,1.6,0.3,2.1,1C22.3,6.8,22.5,7.6,22.5,8.7z M29.2,5.4v10h-1.8v-1.1 c-0.7,0.8-1.4,1.2-2.1,1.2c-0.6,0-1-0.2-1.2-0.7C24,14.5,24,14,24,13.4V5.4h1.8v7.4c0,0.4,0,0.7,0,0.7c0,0.3,0.2,0.4,0.4,0.4 c0.4,0,0.7-0.3,1.1-0.9V5.4C27.4,5.4,29.2,5.4,29.2,5.4z"/></symbol>
	<symbol id="arrow-right-light" viewBox="0 0 40 40"><path d="M34.1,19.9c0,0.3-0.1,0.3-0.1,0.4L21.3,33.1c-0.1,0.1-0.1,0.1-0.4,0.1c-0.3,0-0.3-0.1-0.4-0.1L19,31.6 c-0.1-0.1-0.1-0.1-0.1-0.4s0.1-0.3,0.1-0.4l9.2-9.2H5.8c-0.1,0-0.2,0-0.2,0c0,0,0,0,0,0c-0.1-0.1-0.1-0.2-0.1-0.4v-2.5 c0-0.2,0.1-0.4,0.1-0.5c0,0,0.1,0,0.2,0h22.4L19,9c-0.1-0.1-0.1-0.1-0.1-0.4c0-0.3,0.1-0.3,0.1-0.4l1.5-1.5c0.1-0.1,0.1-0.1,0.4-0.1 c0.3,0,0.3,0.1,0.4,0.1L34,19.5C34,19.6,34.1,19.6,34.1,19.9z"/></symbol>
</svg>
